<svg width="543" height="333" viewBox="0 0 543 333" fill="none" xmlns="http://www.w3.org/2000/svg">
<path fill-rule="evenodd" clip-rule="evenodd" d="M31.6665 86.9058C21.2646 88.8441 14.4035 98.8479 16.3418 109.25C18.2801 119.652 28.2839 126.513 38.6858 124.574L53.0156 121.904C49.0264 126.198 47.0519 132.261 48.208 138.465C50.1464 148.867 60.1501 155.728 70.552 153.79L172.585 134.777C172.606 134.9 172.628 135.024 172.651 135.147C173.807 141.353 177.834 146.298 183.104 148.867L176.843 150.034C166.441 151.972 159.58 161.976 161.518 172.378C163.456 182.78 173.46 189.641 183.862 187.702L481.245 132.287C491.647 130.349 498.508 120.345 496.57 109.943C495.413 103.737 491.386 98.7919 486.117 96.2233L496.133 94.3568C506.535 92.4185 513.396 82.4148 511.458 72.0129C509.52 61.611 499.516 54.7499 489.114 56.6882L310.747 89.9258C310.726 89.8024 310.704 89.6789 310.681 89.5553C309.525 83.3509 305.499 78.4062 300.231 75.8372L317.546 72.6107C327.948 70.6724 334.809 60.6687 332.87 50.2668C330.932 39.8649 320.928 33.0038 310.526 34.9421L31.6665 86.9058ZM46.7645 235.794C44.8262 225.392 51.6873 215.389 62.0892 213.45L367.251 156.585C377.653 154.647 387.657 161.508 389.595 171.91C391.533 182.312 384.672 192.316 374.27 194.254L365.53 195.883C366.55 196.38 367.524 196.967 368.44 197.634L474.186 177.929C484.588 175.991 494.591 182.852 496.53 193.254C497.686 199.459 495.711 205.522 491.721 209.816L493.851 209.419C504.252 207.481 514.256 214.342 516.194 224.744C518.133 235.146 511.272 245.149 500.87 247.088L183.877 306.157C173.475 308.096 163.472 301.234 161.533 290.833C159.595 280.431 166.456 270.427 176.858 268.489L200.003 264.176C198.983 263.679 198.011 263.093 197.096 262.426L55.9953 288.719C45.5934 290.657 35.5897 283.796 33.6513 273.394C31.713 262.992 38.5741 252.989 48.976 251.05L57.2186 249.514C51.9485 246.946 47.921 242 46.7645 235.794Z" fill="black" fill-opacity="0.05"/>
<g filter="url(#filter0_ddd_1223_62287)">
<rect x="72.5371" y="88.6572" width="224.06" height="169.254" rx="6" fill="#EEEEEE"/>
</g>
<path d="M146.744 181.689V198.5C150.089 198.5 153.295 199.828 155.66 202.192C158.024 204.557 159.352 207.763 159.352 211.107L159.352 219.512C159.352 222.857 158.024 226.063 155.66 228.428C153.295 230.792 150.089 232.12 146.744 232.12H138.339C134.995 232.12 131.789 230.792 129.424 228.428C127.06 226.063 125.731 222.857 125.731 219.512V211.107C125.731 207.763 127.06 204.557 129.424 202.192C131.789 199.828 134.995 198.5 138.339 198.5V181.689C138.339 178.345 139.667 175.139 142.031 172.774C144.396 170.41 147.603 169.082 150.947 169.082H180.365V148.069C177.021 148.069 173.814 146.74 171.449 144.377C169.085 142.012 167.757 138.805 167.757 135.461V127.056C167.757 123.712 169.085 120.505 171.449 118.14C173.814 115.777 177.021 114.448 180.365 114.448H188.77C192.114 114.448 195.32 115.777 197.685 118.14C200.049 120.505 201.378 123.712 201.378 127.056V135.461C201.378 138.805 200.049 142.012 197.685 144.377C195.321 146.74 192.114 148.069 188.77 148.069V169.082H218.188C221.532 169.082 224.738 170.41 227.103 172.774C229.467 175.139 230.796 178.345 230.796 181.689V198.5C234.14 198.5 237.346 199.828 239.711 202.192C242.075 204.557 243.403 207.763 243.403 211.107V219.512C243.403 222.857 242.075 226.063 239.711 228.428C237.346 230.792 234.14 232.12 230.796 232.12H222.391C219.046 232.12 215.84 230.792 213.475 228.428C211.111 226.063 209.783 222.857 209.783 219.512V211.107C209.783 207.763 211.111 204.557 213.475 202.192C215.84 199.828 219.046 198.5 222.391 198.5V181.689C222.391 180.575 221.948 179.506 221.16 178.718C220.372 177.93 219.302 177.487 218.188 177.487H188.77V198.5C192.114 198.5 195.32 199.828 197.685 202.192C200.049 204.557 201.378 207.763 201.378 211.107V219.512C201.378 222.857 200.049 226.063 197.685 228.428C195.321 230.792 192.114 232.12 188.77 232.12H180.365C177.021 232.12 173.814 230.792 171.449 228.428C169.085 226.063 167.757 222.857 167.757 219.512L167.757 211.107C167.757 207.763 169.085 204.557 171.449 202.192C173.814 199.828 177.021 198.5 180.365 198.5V177.487H150.947C149.832 177.487 148.763 177.93 147.975 178.718C147.187 179.506 146.744 180.575 146.744 181.689ZM138.339 206.905C137.225 206.905 136.155 207.348 135.367 208.136C134.579 208.923 134.137 209.993 134.137 211.107V219.512C134.137 220.627 134.579 221.696 135.367 222.484C136.155 223.272 137.225 223.715 138.339 223.715H146.744C147.859 223.715 148.928 223.272 149.716 222.484C150.504 221.696 150.947 220.627 150.947 219.512V211.107C150.947 209.993 150.504 208.923 149.716 208.136C148.928 207.348 147.859 206.905 146.744 206.905H138.339ZM188.77 139.664C189.884 139.664 190.954 139.221 191.742 138.433C192.53 137.645 192.973 136.576 192.973 135.461V127.056C192.973 125.942 192.53 124.872 191.742 124.084C190.954 123.296 189.884 122.853 188.77 122.853H180.365C179.25 122.853 178.181 123.296 177.393 124.084C176.605 124.872 176.162 125.942 176.162 127.056V135.461C176.162 136.576 176.605 137.645 177.393 138.433C178.181 139.221 179.25 139.664 180.365 139.664H188.77ZM222.391 206.905C221.276 206.905 220.207 207.348 219.419 208.136C218.631 208.923 218.188 209.993 218.188 211.107V219.512C218.188 220.627 218.631 221.696 219.419 222.484C220.207 223.272 221.276 223.715 222.391 223.715H230.796C231.91 223.715 232.98 223.272 233.767 222.484C234.555 221.696 234.998 220.627 234.998 219.512V211.107C234.998 209.993 234.555 208.923 233.767 208.136C232.98 207.348 231.91 206.905 230.796 206.905H222.391ZM180.365 206.905C179.25 206.905 178.181 207.348 177.393 208.136C176.605 208.923 176.162 209.993 176.162 211.107L176.162 219.512C176.162 220.627 176.605 221.696 177.393 222.484C178.181 223.272 179.25 223.715 180.365 223.715H188.77C189.884 223.715 190.954 223.272 191.742 222.484C192.53 221.696 192.973 220.627 192.973 219.512V211.107C192.973 209.993 192.53 208.923 191.742 208.136C190.954 207.348 189.884 206.905 188.77 206.905H180.365Z" fill="#C4C4C4"/>
<g filter="url(#filter1_ddd_1223_62287)">
<rect x="234" y="37" width="224.06" height="169.254" rx="6" fill="#EEEEEE"/>
</g>
<rect x="289.4" y="99.0908" width="137.584" height="17.198" rx="2" fill="#F8F8F8"/>
<rect x="289.4" y="153.91" width="137.584" height="17.198" rx="2" fill="#F8F8F8"/>
<rect x="289.4" y="125.963" width="137.584" height="18.2728" rx="2" fill="#D9D9D9"/>
<rect x="289.4" y="71.1445" width="137.584" height="17.198" rx="2" fill="#D9D9D9"/>
<rect x="265" y="98.7227" width="17.3263" height="17.3263" rx="2" fill="#F8F8F8"/>
<rect x="265" y="154.167" width="17.3263" height="17.3263" rx="2" fill="#F8F8F8"/>
<rect x="265" y="126.444" width="17.3263" height="17.3263" rx="2" fill="#D9D9D9"/>
<rect x="265" y="71" width="17.3263" height="17.3263" rx="2" fill="#D9D9D9"/>
<defs>
<filter id="filter0_ddd_1223_62287" x="58.5371" y="78.6572" width="252.061" height="197.254" filterUnits="userSpaceOnUse" color-interpolation-filters="sRGB">
<feFlood flood-opacity="0" result="BackgroundImageFix"/>
<feColorMatrix in="SourceAlpha" type="matrix" values="0 0 0 0 0 0 0 0 0 0 0 0 0 0 0 0 0 0 127 0" result="hardAlpha"/>
<feOffset dy="2"/>
<feGaussianBlur stdDeviation="0.5"/>
<feColorMatrix type="matrix" values="0 0 0 0 0 0 0 0 0 0 0 0 0 0 0 0 0 0 0.04 0"/>
<feBlend mode="normal" in2="BackgroundImageFix" result="effect1_dropShadow_1223_62287"/>
<feColorMatrix in="SourceAlpha" type="matrix" values="0 0 0 0 0 0 0 0 0 0 0 0 0 0 0 0 0 0 127 0" result="hardAlpha"/>
<feOffset dy="1"/>
<feGaussianBlur stdDeviation="0.5"/>
<feColorMatrix type="matrix" values="0 0 0 0 0 0 0 0 0 0 0 0 0 0 0 0 0 0 0.04 0"/>
<feBlend mode="normal" in2="effect1_dropShadow_1223_62287" result="effect2_dropShadow_1223_62287"/>
<feColorMatrix in="SourceAlpha" type="matrix" values="0 0 0 0 0 0 0 0 0 0 0 0 0 0 0 0 0 0 127 0" result="hardAlpha"/>
<feOffset dy="4"/>
<feGaussianBlur stdDeviation="7"/>
<feComposite in2="hardAlpha" operator="out"/>
<feColorMatrix type="matrix" values="0 0 0 0 0 0 0 0 0 0 0 0 0 0 0 0 0 0 0.2 0"/>
<feBlend mode="normal" in2="effect2_dropShadow_1223_62287" result="effect3_dropShadow_1223_62287"/>
<feBlend mode="normal" in="SourceGraphic" in2="effect3_dropShadow_1223_62287" result="shape"/>
</filter>
<filter id="filter1_ddd_1223_62287" x="220" y="27" width="252.061" height="197.254" filterUnits="userSpaceOnUse" color-interpolation-filters="sRGB">
<feFlood flood-opacity="0" result="BackgroundImageFix"/>
<feColorMatrix in="SourceAlpha" type="matrix" values="0 0 0 0 0 0 0 0 0 0 0 0 0 0 0 0 0 0 127 0" result="hardAlpha"/>
<feOffset dy="2"/>
<feGaussianBlur stdDeviation="0.5"/>
<feColorMatrix type="matrix" values="0 0 0 0 0 0 0 0 0 0 0 0 0 0 0 0 0 0 0.04 0"/>
<feBlend mode="normal" in2="BackgroundImageFix" result="effect1_dropShadow_1223_62287"/>
<feColorMatrix in="SourceAlpha" type="matrix" values="0 0 0 0 0 0 0 0 0 0 0 0 0 0 0 0 0 0 127 0" result="hardAlpha"/>
<feOffset dy="1"/>
<feGaussianBlur stdDeviation="0.5"/>
<feColorMatrix type="matrix" values="0 0 0 0 0 0 0 0 0 0 0 0 0 0 0 0 0 0 0.04 0"/>
<feBlend mode="normal" in2="effect1_dropShadow_1223_62287" result="effect2_dropShadow_1223_62287"/>
<feColorMatrix in="SourceAlpha" type="matrix" values="0 0 0 0 0 0 0 0 0 0 0 0 0 0 0 0 0 0 127 0" result="hardAlpha"/>
<feOffset dy="4"/>
<feGaussianBlur stdDeviation="7"/>
<feComposite in2="hardAlpha" operator="out"/>
<feColorMatrix type="matrix" values="0 0 0 0 0 0 0 0 0 0 0 0 0 0 0 0 0 0 0.2 0"/>
<feBlend mode="normal" in2="effect2_dropShadow_1223_62287" result="effect3_dropShadow_1223_62287"/>
<feBlend mode="normal" in="SourceGraphic" in2="effect3_dropShadow_1223_62287" result="shape"/>
</filter>
</defs>
</svg>
